<svg id="svg" version="1.1" width="400" height="415" xmlns="http://www.w3.org/2000/svg" xmlns:xlink="http://www.w3.org/1999/xlink" style="display: block;"><g id="svgg"><path id="path0" d="M287.600 8.250 L 280.028 16.500 280.561 24.500 C 280.854 28.900,281.287 33.740,281.523 35.257 C 281.924 37.829,281.413 38.280,273.866 42.007 C 263.831 46.962,265.997 47.114,246.184 40.058 L 229.500 34.117 203.287 32.937 C 188.870 32.288,176.420 32.009,175.620 32.316 C 174.430 32.772,142.130 69.663,135.147 78.541 C 134.009 79.987,128.404 83.131,121.711 86.076 L 110.228 91.131 109.517 100.621 C 108.673 111.868,111.635 118.850,116.470 117.012 C 117.725 116.534,120.609 115.644,122.879 115.033 C 126.440 114.074,127.885 112.726,133.410 105.211 C 137.752 99.304,142.786 94.086,149.047 89.000 C 158.382 81.417,169.450 72.274,178.377 64.770 L 183.254 60.670 193.563 65.797 C 201.738 69.863,205.644 71.180,212.436 72.162 C 222.595 73.631,222.597 73.638,215.250 81.423 C 207.433 89.707,186.954 111.619,165.818 134.314 C 155.610 145.275,147.857 154.458,147.244 156.314 C 145.600 161.295,112.429 243.269,110.724 246.567 C 109.858 248.241,100.419 256.414,88.850 265.506 C 64.165 284.907,61.619 287.402,55.599 298.095 C 49.699 308.572,34.383 333.060,32.730 334.657 C 31.779 335.576,29.486 335.518,22.634 334.405 L 13.767 332.963 7.069 338.443 L 0.372 343.923 2.244 355.711 C 3.802 365.521,4.017 370.712,3.522 386.636 L 2.928 405.773 9.393 410.386 C 17.727 416.333,21.169 416.609,20.187 411.250 C 15.905 387.879,27.063 368.577,63.000 337.189 C 84.550 318.366,93.261 310.783,100.000 304.979 C 101.375 303.795,104.675 300.953,107.333 298.663 C 110.652 295.804,115.489 293.220,122.778 290.414 L 133.391 286.327 135.223 280.832 C 136.835 275.996,138.342 274.158,147.777 265.528 C 153.675 260.134,161.425 252.949,165.000 249.562 C 183.490 232.043,195.995 221.000,197.343 221.000 C 198.588 221.000,223.594 229.080,231.807 232.135 C 233.932 232.926,233.176 233.761,222.184 242.768 C 212.726 250.518,207.794 255.594,198.377 267.270 L 186.500 281.996 178.205 281.855 L 169.911 281.713 163.455 286.886 C 156.083 292.793,156.211 292.329,159.399 301.702 C 161.251 307.148,163.887 311.457,170.975 320.627 C 176.024 327.157,182.257 335.274,184.827 338.665 C 189.252 344.503,195.401 348.106,198.096 346.441 C 201.129 344.566,198.285 323.868,193.022 309.500 C 190.697 303.154,194.690 298.191,208.500 290.263 C 223.186 281.832,228.104 279.037,236.058 274.600 C 239.115 272.895,251.139 266.100,262.779 259.500 L 283.943 247.500 286.971 237.844 C 290.822 225.565,290.912 226.304,284.155 214.500 L 278.430 204.500 255.465 186.623 C 242.834 176.791,232.500 168.362,232.500 167.893 C 232.500 167.424,243.948 158.422,257.939 147.888 L 283.378 128.736 285.731 131.618 C 287.024 133.203,291.307 138.836,295.247 144.135 C 303.074 154.662,303.659 154.963,316.354 154.991 C 324.922 155.011,349.456 135.817,365.667 116.412 C 380.053 99.191,380.771 98.593,397.252 90.081 C 400.520 88.393,400.482 89.313,397.684 79.731 C 395.363 71.780,387.542 63.811,383.559 65.339 C 380.377 66.560,374.759 75.215,372.652 82.142 L 370.442 89.410 349.471 101.279 C 337.937 107.807,326.628 114.235,324.341 115.563 L 320.182 117.978 317.922 109.421 C 316.162 102.762,314.138 98.460,308.790 90.017 C 299.125 74.760,300.101 71.287,313.757 72.340 C 326.587 73.330,329.761 71.460,332.542 61.270 C 335.054 52.066,335.575 51.000,337.559 51.000 C 339.341 51.000,339.384 51.723,337.000 41.500 C 335.900 36.782,335.000 29.397,335.000 25.086 C 335.000 12.181,334.725 11.573,326.111 5.463 L 318.500 0.064 306.836 0.032 L 295.172 0.000 287.600 8.250 " stroke="none" fill="#000000" fill-rule="evenodd"></path></g></svg>