<?xml version="1.0" encoding="UTF-8" standalone="no"?>
<!-- Created with Inkscape (http://www.inkscape.org/) -->

<svg
   xmlns:dc="http://purl.org/dc/elements/1.1/"
   xmlns:cc="http://creativecommons.org/ns#"
   xmlns:rdf="http://www.w3.org/1999/02/22-rdf-syntax-ns#"
   xmlns:svg="http://www.w3.org/2000/svg"
   xmlns="http://www.w3.org/2000/svg"
   xmlns:sodipodi="http://sodipodi.sourceforge.net/DTD/sodipodi-0.dtd"
   xmlns:inkscape="http://www.inkscape.org/namespaces/inkscape"
   width="140.84801"
   height="31.944"
   id="svg3911"
   version="1.1"
   inkscape:version="0.48.3.1 r9886"
   sodipodi:docname="dibujo.svg">
  <defs
     id="defs3913" />
  <sodipodi:namedview
     id="base"
     pagecolor="#ffffff"
     bordercolor="#666666"
     borderopacity="1.0"
     inkscape:pageopacity="0.0"
     inkscape:pageshadow="2"
     inkscape:zoom="0.7"
     inkscape:cx="344.82979"
     inkscape:cy="13.631457"
     inkscape:document-units="px"
     inkscape:current-layer="layer1"
     showgrid="false"
     inkscape:window-width="1366"
     inkscape:window-height="691"
     inkscape:window-x="0"
     inkscape:window-y="24"
     inkscape:window-maximized="1"
     fit-margin-top="0.1"
     fit-margin-left="0.1"
     fit-margin-right="0.1"
     fit-margin-bottom="0.1" />
  <metadata
     id="metadata3916">
    <rdf:RDF>
      <cc:Work
         rdf:about="">
        <dc:format>image/svg+xml</dc:format>
        <dc:type
           rdf:resource="http://purl.org/dc/dcmitype/StillImage" />
        <dc:title />
      </cc:Work>
    </rdf:RDF>
  </metadata>
  <g
     inkscape:label="Capa 1"
     inkscape:groupmode="layer"
     id="layer1"
     transform="translate(-312.43314,-459.24733)">
    <g
       id="g370"
       transform="translate(-265.80486,238.94933)">
      <path
         d="m 608.899,234.283 h -2.213 c -0.135,-0.858 -0.356,-1.686 -0.655,-2.477 l 1.922,-1.11 c 0.567,-0.327 0.765,-1.059 0.437,-1.626 l -0.794,-1.375 c -0.328,-0.567 -1.06,-0.763 -1.627,-0.436 l -1.91,1.104 c -1.227,-1.523 -2.797,-2.758 -4.598,-3.583 -0.174,-0.08 -0.375,-0.065 -0.537,0.038 -0.16,0.104 -0.257,0.28 -0.257,0.471 v 3.73 c 0,0.183 0.091,0.356 0.241,0.46 2.15,1.49 3.56,3.974 3.56,6.79 -0.008,4.557 -3.695,8.246 -8.258,8.254 -4.556,-0.009 -8.244,-3.697 -8.253,-8.256 0,-2.814 1.412,-5.298 3.562,-6.788 0.151,-0.104 0.24,-0.277 0.24,-0.46 v -3.73 c 0,-0.191 -0.096,-0.368 -0.256,-0.471 -0.161,-0.104 -0.362,-0.118 -0.535,-0.038 -1.802,0.822 -3.373,2.057 -4.6,3.582 l -1.91,-1.103 c -0.567,-0.327 -1.298,-0.131 -1.626,0.436 l -0.794,1.375 c -0.328,0.567 -0.131,1.3 0.437,1.626 l 1.921,1.11 c -0.3,0.791 -0.521,1.619 -0.656,2.477 h -2.213 c -0.654,0 -1.189,0.535 -1.189,1.19 v 1.587 c 0,0.655 0.535,1.19 1.189,1.19 h 2.213 c 0.129,0.82 0.336,1.616 0.616,2.375 l -1.929,1.114 c -0.567,0.327 -0.765,1.06 -0.437,1.627 l 0.794,1.375 c 0.326,0.567 1.059,0.763 1.625,0.436 l 1.891,-1.091 c 0.576,0.729 1.229,1.395 1.949,1.982 l -1.105,1.913 c -0.326,0.567 -0.131,1.299 0.438,1.626 l 1.374,0.795 c 0.567,0.327 1.299,0.131 1.627,-0.437 l 1.103,-1.909 c 0.811,0.313 1.662,0.544 2.543,0.684 v 2.212 c 0,0.654 0.537,1.19 1.191,1.19 h 1.588 c 0.655,0 1.19,-0.536 1.19,-1.19 v -2.211 c 0.885,-0.141 1.738,-0.373 2.55,-0.687 l 1.104,1.911 c 0.326,0.567 1.059,0.764 1.626,0.437 l 1.375,-0.795 c 0.567,-0.327 0.763,-1.059 0.436,-1.626 l -1.106,-1.918 c 0.719,-0.586 1.372,-1.251 1.948,-1.98 l 1.893,1.094 c 0.567,0.327 1.3,0.132 1.626,-0.436 l 0.795,-1.375 c 0.326,-0.567 0.131,-1.3 -0.437,-1.627 l -1.935,-1.117 c 0.278,-0.759 0.485,-1.552 0.615,-2.372 h 2.212 c 0.655,0 1.19,-0.536 1.19,-1.19 v -1.587 c -10e-4,-0.655 -0.536,-1.19 -1.191,-1.19 z"
         id="path372"
         inkscape:connector-curvature="0"
         style="fill:#ed1849" />
      <g
         id="g374">
        <path
           d="m 596.198,235.083 c 0,0.655 -0.536,1.191 -1.191,1.191 h -1.588 c -0.654,0 -1.191,-0.536 -1.191,-1.19 v -13.496 c 0,-0.655 0.537,-1.19 1.191,-1.19 l 1.588,0 c 0.655,0 1.191,0.536 1.191,1.19 v 13.495 z"
           id="path376"
           inkscape:connector-curvature="0"
           style="fill:#ed1849" />
      </g>
    </g>
    <g
       id="g378"
       transform="translate(-265.80486,238.94933)">
      <path
         d="m 629.124,241.828 c -0.957,0 -1.493,-0.21 -1.493,-1.259 v -5.743 c 0,-0.21 0.069,-1.634 -0.281,-1.634 -0.677,0 -1.542,0.7 -2.054,1.096 v 6.28 c 0,1.4 -0.958,1.259 -2.031,1.259 -0.958,0 -1.494,-0.21 -1.494,-1.259 v -5.743 c 0,-0.21 0.069,-1.634 -0.28,-1.634 -0.677,0 -1.542,0.7 -2.054,1.096 v 6.28 c 0,1.4 -0.958,1.259 -2.032,1.259 -0.957,0 -1.493,-0.21 -1.493,-1.259 v -8.685 c 0,-1.493 1.26,-1.237 2.334,-1.237 0.42,0 0.771,0.187 1.004,0.537 0.935,-0.513 1.984,-0.887 3.082,-0.887 0.934,0 1.797,0.327 2.356,1.097 1.075,-0.676 2.219,-1.097 3.503,-1.097 2.054,0 2.965,1.471 2.965,3.385 v 6.887 c -10e-4,1.401 -0.958,1.261 -2.032,1.261 z"
         id="path380"
         inkscape:connector-curvature="0" />
      <path
         d="m 641.122,241.828 c -0.514,0 -1.144,-0.022 -1.378,-0.582 -1.026,0.56 -2.193,0.887 -3.361,0.887 -2.357,0 -3.618,-1.237 -3.618,-3.596 0,-3.268 2.405,-3.875 5.159,-3.875 0.561,0 1.12,0.023 1.681,0.07 0,-0.77 0.095,-1.866 -0.957,-1.866 -1.144,0 -2.335,0.232 -3.454,0.466 -0.141,0.024 -0.306,0.047 -0.445,0.047 -0.979,0 -0.979,-0.724 -0.979,-1.447 0,-0.654 0.233,-1.051 0.888,-1.214 1.003,-0.258 2.825,-0.421 3.875,-0.421 1.213,0 2.708,0.188 3.571,1.121 0.958,1.051 0.935,2.451 0.935,3.782 v 5.393 c -0.002,1.328 -0.891,1.235 -1.917,1.235 z m -1.495,-4.807 c -0.304,0 -0.584,-0.047 -0.887,-0.047 -1.027,0 -2.685,-0.094 -2.685,1.331 0,0.397 0.093,1.353 0.653,1.353 1.261,0 1.844,-0.279 2.918,-0.933 v -1.704 z"
         id="path382"
         inkscape:connector-curvature="0" />
      <path
         d="m 653.994,241.478 c -0.187,0.443 -1.097,0.514 -1.493,0.561 -0.679,0.069 -1.332,0.094 -2.008,0.094 -4.576,0 -5.604,-1.447 -5.604,-5.906 0,-4.436 1.052,-5.93 5.604,-5.93 0.676,0 1.329,0.047 2.008,0.117 0.371,0.046 1.283,0.094 1.47,0.49 0.069,0.14 0.069,0.303 0.069,0.467 v 0.093 c 0,0.817 0,2.008 -1.119,2.008 -0.305,0 -0.63,-0.047 -0.935,-0.093 -0.724,-0.094 -1.472,-0.187 -2.195,-0.187 -1.236,0 -1.189,0.373 -1.26,1.424 -0.047,0.537 -0.047,1.074 -0.047,1.61 0,0.724 0.023,1.447 0.094,2.147 0.093,0.864 0.396,0.864 1.213,0.864 0.748,0 1.472,-0.094 2.218,-0.187 0.304,-0.046 0.607,-0.093 0.912,-0.093 0.302,0 0.56,0.117 0.77,0.327 0.233,0.233 0.35,1.354 0.35,1.68 -0.001,0.164 -0.001,0.351 -0.047,0.514 z"
         id="path384"
         inkscape:connector-curvature="0" />
      <path
         d="m 664.077,241.828 c -0.979,0 -1.493,-0.232 -1.493,-1.306 v -5.626 c 0,-0.233 0.022,-1.47 -0.14,-1.611 -0.14,-0.117 -0.373,-0.092 -0.538,-0.092 -0.934,0 -1.797,0.396 -2.568,0.91 v 6.42 c 0,1.423 -0.932,1.306 -2.029,1.306 -0.98,0 -1.495,-0.232 -1.495,-1.306 V 227.03 c 0,-0.887 0.422,-1.26 1.285,-1.26 h 1.05 c 0.746,0 1.189,0.537 1.189,1.26 v 3.852 c 0.912,-0.396 1.915,-0.584 2.896,-0.584 2.265,0 3.874,1.121 3.874,3.479 v 6.747 c 0,1.421 -0.933,1.304 -2.031,1.304 z"
         id="path386"
         inkscape:connector-curvature="0" />
      <path
         d="m 670.698,229.106 h -0.887 c -0.958,0 -1.495,-0.21 -1.495,-1.283 v -0.794 c 0,-0.887 0.422,-1.26 1.285,-1.26 h 1.097 c 0.746,0 1.213,0.537 1.213,1.26 v 0.794 c 0,0.793 -0.372,1.283 -1.213,1.283 z m 0,12.722 h -0.887 c -0.98,0 -1.495,-0.232 -1.495,-1.306 v -8.59 c 0,-0.887 0.422,-1.284 1.285,-1.284 h 1.097 c 0.746,0 1.213,0.56 1.213,1.284 v 8.59 c 0,0.793 -0.372,1.306 -1.213,1.306 z"
         id="path388"
         inkscape:connector-curvature="0" />
      <path
         d="m 682.42,241.828 c -0.957,0 -1.494,-0.21 -1.494,-1.259 v -5.766 c 0,-0.491 0.094,-1.635 -0.63,-1.635 -1.004,0 -1.867,0.538 -2.615,1.121 v 6.28 c 0,1.4 -0.955,1.259 -2.03,1.259 -0.957,0 -1.493,-0.21 -1.493,-1.259 v -8.685 c 0,-0.863 0.443,-1.237 1.283,-1.237 h 1.05 c 0.422,0 0.748,0.164 0.981,0.514 0.957,-0.56 1.983,-0.864 3.104,-0.864 2.194,0 3.876,1.027 3.876,3.362 v 6.91 c 10e-4,1.399 -0.957,1.259 -2.032,1.259 z"
         id="path390"
         inkscape:connector-curvature="0" />
      <path
         d="m 694.348,241.828 c -0.514,0 -1.144,-0.022 -1.376,-0.582 -1.027,0.56 -2.195,0.887 -3.361,0.887 -2.358,0 -3.618,-1.237 -3.618,-3.596 0,-3.268 2.404,-3.875 5.158,-3.875 0.561,0 1.121,0.023 1.683,0.07 0,-0.77 0.092,-1.866 -0.958,-1.866 -1.146,0 -2.335,0.232 -3.456,0.466 -0.139,0.024 -0.304,0.047 -0.443,0.047 -0.98,0 -0.98,-0.724 -0.98,-1.447 0,-0.654 0.233,-1.051 0.887,-1.214 1.005,-0.258 2.825,-0.421 3.876,-0.421 1.214,0 2.708,0.188 3.571,1.121 0.957,1.051 0.934,2.451 0.934,3.782 v 5.393 c -0.002,1.328 -0.889,1.235 -1.917,1.235 z m -1.493,-4.807 c -0.304,0 -0.583,-0.047 -0.887,-0.047 -1.028,0 -2.685,-0.094 -2.685,1.331 0,0.397 0.094,1.353 0.653,1.353 1.262,0 1.845,-0.279 2.918,-0.933 v -1.704 z"
         id="path392"
         inkscape:connector-curvature="0" />
      <path
         d="m 700.788,241.828 h -0.841 c -0.98,0 -1.493,-0.232 -1.493,-1.306 v -13.493 c 0,-0.887 0.42,-1.26 1.283,-1.26 h 1.051 c 0.747,0 1.19,0.537 1.19,1.26 v 13.493 c 0,0.793 -0.351,1.306 -1.19,1.306 z"
         id="path394"
         inkscape:connector-curvature="0" />
      <path
         d="m 706.611,229.106 h -0.886 c -0.958,0 -1.494,-0.21 -1.494,-1.283 v -0.794 c 0,-0.887 0.42,-1.26 1.283,-1.26 h 1.097 c 0.748,0 1.214,0.537 1.214,1.26 v 0.794 c 0,0.793 -0.373,1.283 -1.214,1.283 z m 0,12.722 h -0.886 c -0.981,0 -1.494,-0.232 -1.494,-1.306 v -8.59 c 0,-0.887 0.42,-1.284 1.283,-1.284 h 1.097 c 0.748,0 1.214,0.56 1.214,1.284 v 8.59 c 0,0.793 -0.373,1.306 -1.214,1.306 z"
         id="path396"
         inkscape:connector-curvature="0" />
      <path
         d="m 714.317,242.132 c -1.119,0 -2.265,0 -3.386,-0.141 -0.887,-0.117 -0.887,-0.443 -0.887,-1.307 v -0.397 c 0,-0.678 0.117,-1.307 0.935,-1.307 0.443,0 0.91,0.117 1.354,0.163 0.77,0.071 1.541,0.117 2.31,0.117 0.515,0 0.912,0.023 0.912,-0.606 0,-0.188 0.022,-0.397 -0.094,-0.561 -0.257,-0.35 -3.781,-0.817 -4.855,-1.797 -0.63,-0.584 -0.817,-1.494 -0.817,-2.311 0,-3.666 2.685,-3.689 5.579,-3.689 0.584,0 1.169,0 1.752,0.047 0.956,0.07 1.425,0.303 1.425,1.354 0,0.864 -0.025,1.657 -1.122,1.657 -0.421,0 -0.84,-0.071 -1.237,-0.094 -0.63,-0.069 -1.237,-0.094 -1.867,-0.094 -0.63,0 -1.098,-0.117 -1.098,0.654 0,0.093 0,0.187 0.07,0.28 0.188,0.234 1.401,0.538 1.704,0.63 2.312,0.677 3.991,0.795 3.991,3.689 -10e-4,3.292 -1.751,3.713 -4.669,3.713 z"
         id="path398"
         inkscape:connector-curvature="0" />
    </g>
  </g>
</svg>
