<?xml version="1.0" encoding="utf-8"?>
<!-- Generator: Adobe Illustrator 15.0.2, SVG Export Plug-In . SVG Version: 6.00 Build 0)  -->
<!DOCTYPE svg PUBLIC "-//W3C//DTD SVG 1.1//EN" "http://www.w3.org/Graphics/SVG/1.1/DTD/svg11.dtd">
<svg version="1.1" id="wordmark" xmlns="http://www.w3.org/2000/svg" xmlns:xlink="http://www.w3.org/1999/xlink" x="0px" y="0px"
	 width="120px" height="40px" viewBox="0 0 120 40" enable-background="new 0 0 120 40" xml:space="preserve">
<path fill="#3D4E5F" d="M115.758,28.029V16.768c0-3.857-2.631-6.975-7.584-6.975c-4.682,0-7.545,2.766-7.895,6.39h3.213
	c0.154-2.065,1.818-3.896,4.643-3.896c2.825,0,4.644,1.714,4.644,4.481v1.91h-6.771c-4.372,0-6.616,2.221-6.616,5.611
	c0,3.936,2.94,6.156,6.655,6.156c3.25,0,5.571-1.209,6.771-3.547h0.465c0.465,2.494,2.129,3.312,4.527,3.312h1.006v-2.182H115.758z
	 M112.816,22.613c-0.193,2.922-2.514,5.338-5.997,5.338c-2.321,0-4.488-0.896-4.488-3.312v-0.74c0-1.869,1.548-2.883,4.14-2.883
	h6.346V22.613z"/>
<path fill="#3D4E5F" d="M94.71,10.105h3.907v2.806h-4.102c-3.945,0-6.307,1.636-6.732,5.728v8.883h8.784v2.338H78.885v-2.338h5.958
	V12.793h-5.958v-2.416h8.551v4.403h0.541C89.061,11.664,91.072,10.105,94.71,10.105z"/>
<path fill="#3D4E5F" d="M68.748,9.793c-5.61,0-9.364,4.13-9.364,10.326c0,6.195,3.753,10.326,9.364,10.326
	c5.65,0,9.364-4.131,9.364-10.326C78.112,13.923,74.398,9.793,68.748,9.793z M74.939,21.287c0,3.936-2.516,6.664-6.191,6.664
	s-6.191-2.729-6.191-6.625v-2.415c0-3.896,2.516-6.624,6.191-6.624s6.191,2.728,6.191,6.624V21.287z"/>
<path fill="#3D4E5F" d="M50.757,27.367h7.854v2.494h-3.637c-4.875,0-7.236-1.521-7.236-6.82V12.793h-4.035L35.938,32.16
	c-1.432,3.506-3.366,5.492-7.313,5.492h-2.786l-0.039-2.492h6.191l2.012-5.145l-8.319-19.638h3.328l4.527,11.534l1.547,4.83h0.697
	l1.509-4.986l4.179-11.378h3.791l2.708,0.312l0.078-0.039V4.533h2.708v5.845h7.816v2.416h-7.816V27.367z"/>
<path fill="#3D4E5F" d="M4.482,14.235v3.975c0,5.183,3.753,9.624,8.899,9.624c4.914,0,7.507-3.078,8.204-6.975h3.328
	c-0.929,5.338-5.185,9.586-11.531,9.586C6.417,30.445,1,24.873,1,16.223S6.417,2,13.382,2c6.346,0,10.603,4.248,11.531,9.586h-3.328
	c-0.697-3.897-3.638-6.975-8.204-6.975C8.236,4.611,4.482,9.053,4.482,14.235z"/>
</svg>
